<mxfile host="app.diagrams.net" agent="Mozilla/5.0 (Macintosh; Intel Mac OS X 10_15_7) AppleWebKit/605.1.15 (KHTML, like Gecko) Version/18.6 Safari/605.1.15" version="28.2.1">
  <diagram name="Page-1" id="wAsHe6x8NOMHR-FiojJh">
    <mxGraphModel dx="450" dy="851" grid="1" gridSize="10" guides="1" tooltips="1" connect="1" arrows="1" fold="1" page="1" pageScale="1" pageWidth="827" pageHeight="1169" math="0" shadow="0">
      <root>
        <mxCell id="0" />
        <mxCell id="1" parent="0" />
        <mxCell id="4F_UYYIf28MU5tTgGBiB-3" value="&lt;div style=&quot;line-height: 230%;&quot;&gt;&lt;font style=&quot;font-size: 29px;&quot;&gt;Person&lt;/font&gt;&lt;/div&gt;" style="rounded=0;whiteSpace=wrap;html=1;" parent="1" vertex="1">
          <mxGeometry x="300" y="200" width="210" height="90" as="geometry" />
        </mxCell>
        <mxCell id="4F_UYYIf28MU5tTgGBiB-6" value="" style="endArrow=none;html=1;rounded=0;" parent="1" edge="1">
          <mxGeometry width="50" height="50" relative="1" as="geometry">
            <mxPoint x="510" y="200" as="sourcePoint" />
            <mxPoint x="560" y="150" as="targetPoint" />
          </mxGeometry>
        </mxCell>
        <mxCell id="4F_UYYIf28MU5tTgGBiB-7" value="&lt;u&gt;&lt;font style=&quot;font-size: 28px;&quot;&gt;UID&lt;/font&gt;&lt;/u&gt;" style="ellipse;whiteSpace=wrap;html=1;" parent="1" vertex="1">
          <mxGeometry x="550" y="110" width="110" height="60" as="geometry" />
        </mxCell>
        <mxCell id="4F_UYYIf28MU5tTgGBiB-9" value="" style="endArrow=none;html=1;rounded=0;exitX=0.75;exitY=0;exitDx=0;exitDy=0;" parent="1" source="4F_UYYIf28MU5tTgGBiB-3" edge="1">
          <mxGeometry width="50" height="50" relative="1" as="geometry">
            <mxPoint x="390" y="260" as="sourcePoint" />
            <mxPoint x="470" y="110" as="targetPoint" />
          </mxGeometry>
        </mxCell>
        <mxCell id="4F_UYYIf28MU5tTgGBiB-10" value="&lt;font style=&quot;font-size: 28px;&quot;&gt;Name&lt;/font&gt;" style="ellipse;whiteSpace=wrap;html=1;" parent="1" vertex="1">
          <mxGeometry x="450" y="50" width="110" height="70" as="geometry" />
        </mxCell>
        <mxCell id="4F_UYYIf28MU5tTgGBiB-11" value="" style="endArrow=none;html=1;rounded=0;exitX=0.75;exitY=0;exitDx=0;exitDy=0;" parent="1" edge="1">
          <mxGeometry width="50" height="50" relative="1" as="geometry">
            <mxPoint x="360" y="200" as="sourcePoint" />
            <mxPoint x="340" y="110" as="targetPoint" />
          </mxGeometry>
        </mxCell>
        <mxCell id="4F_UYYIf28MU5tTgGBiB-12" value="&lt;font style=&quot;font-size: 28px;&quot;&gt;Pet&lt;/font&gt;" style="ellipse;whiteSpace=wrap;html=1;" parent="1" vertex="1">
          <mxGeometry x="250" y="50" width="110" height="70" as="geometry" />
        </mxCell>
        <mxCell id="4F_UYYIf28MU5tTgGBiB-13" value="" style="endArrow=none;html=1;rounded=0;exitX=0.75;exitY=0;exitDx=0;exitDy=0;" parent="1" edge="1">
          <mxGeometry width="50" height="50" relative="1" as="geometry">
            <mxPoint x="300" y="200" as="sourcePoint" />
            <mxPoint x="240" y="160" as="targetPoint" />
          </mxGeometry>
        </mxCell>
        <mxCell id="4F_UYYIf28MU5tTgGBiB-15" value="&lt;span style=&quot;font-size: 28px;&quot;&gt;Wand&lt;/span&gt;" style="ellipse;whiteSpace=wrap;html=1;" parent="1" vertex="1">
          <mxGeometry x="140" y="110" width="110" height="70" as="geometry" />
        </mxCell>
        <mxCell id="4F_UYYIf28MU5tTgGBiB-16" value="" style="endArrow=none;html=1;rounded=0;" parent="1" edge="1">
          <mxGeometry width="50" height="50" relative="1" as="geometry">
            <mxPoint x="120" y="240" as="sourcePoint" />
            <mxPoint x="300" y="240" as="targetPoint" />
          </mxGeometry>
        </mxCell>
        <mxCell id="4F_UYYIf28MU5tTgGBiB-17" value="" style="endArrow=none;html=1;rounded=0;" parent="1" edge="1">
          <mxGeometry width="50" height="50" relative="1" as="geometry">
            <mxPoint x="120" y="400" as="sourcePoint" />
            <mxPoint x="120" y="240" as="targetPoint" />
          </mxGeometry>
        </mxCell>
        <mxCell id="4F_UYYIf28MU5tTgGBiB-18" value="&lt;font style=&quot;line-height: 180%; font-size: 20px;&quot;&gt;ISA&lt;/font&gt;" style="triangle;whiteSpace=wrap;html=1;direction=north;" parent="1" vertex="1">
          <mxGeometry x="70" y="360" width="100" height="50" as="geometry" />
        </mxCell>
        <mxCell id="4F_UYYIf28MU5tTgGBiB-20" value="" style="endArrow=none;html=1;rounded=0;" parent="1" edge="1">
          <mxGeometry width="50" height="50" relative="1" as="geometry">
            <mxPoint x="120" y="470" as="sourcePoint" />
            <mxPoint x="120" y="410" as="targetPoint" />
          </mxGeometry>
        </mxCell>
        <mxCell id="4F_UYYIf28MU5tTgGBiB-21" value="&lt;font style=&quot;font-size: 28px;&quot;&gt;Student&lt;/font&gt;" style="rounded=0;whiteSpace=wrap;html=1;" parent="1" vertex="1">
          <mxGeometry x="45" y="470" width="150" height="80" as="geometry" />
        </mxCell>
        <mxCell id="4F_UYYIf28MU5tTgGBiB-22" value="" style="endArrow=none;html=1;rounded=0;" parent="1" edge="1">
          <mxGeometry width="50" height="50" relative="1" as="geometry">
            <mxPoint x="195" y="470" as="sourcePoint" />
            <mxPoint x="245" y="420" as="targetPoint" />
          </mxGeometry>
        </mxCell>
        <mxCell id="4F_UYYIf28MU5tTgGBiB-23" value="&lt;font style=&quot;font-size: 22px;&quot;&gt;Entry&amp;nbsp;&lt;/font&gt;&lt;div&gt;&lt;font style=&quot;font-size: 22px;&quot;&gt;Year&lt;/font&gt;&lt;/div&gt;" style="ellipse;whiteSpace=wrap;html=1;" parent="1" vertex="1">
          <mxGeometry x="190" y="350" width="110" height="70" as="geometry" />
        </mxCell>
        <mxCell id="4F_UYYIf28MU5tTgGBiB-24" value="" style="endArrow=none;html=1;rounded=0;" parent="1" edge="1">
          <mxGeometry width="50" height="50" relative="1" as="geometry">
            <mxPoint x="510" y="240" as="sourcePoint" />
            <mxPoint x="690" y="240" as="targetPoint" />
          </mxGeometry>
        </mxCell>
        <mxCell id="4F_UYYIf28MU5tTgGBiB-25" value="" style="endArrow=none;html=1;rounded=0;" parent="1" edge="1">
          <mxGeometry width="50" height="50" relative="1" as="geometry">
            <mxPoint x="690" y="400" as="sourcePoint" />
            <mxPoint x="690" y="240" as="targetPoint" />
          </mxGeometry>
        </mxCell>
        <mxCell id="4F_UYYIf28MU5tTgGBiB-26" value="&lt;font style=&quot;line-height: 180%; font-size: 20px;&quot;&gt;ISA&lt;/font&gt;" style="triangle;whiteSpace=wrap;html=1;direction=north;" parent="1" vertex="1">
          <mxGeometry x="640" y="360" width="100" height="50" as="geometry" />
        </mxCell>
        <mxCell id="4F_UYYIf28MU5tTgGBiB-29" value="" style="endArrow=none;html=1;rounded=0;" parent="1" edge="1">
          <mxGeometry width="50" height="50" relative="1" as="geometry">
            <mxPoint x="689.5" y="470" as="sourcePoint" />
            <mxPoint x="689.5" y="410" as="targetPoint" />
          </mxGeometry>
        </mxCell>
        <mxCell id="4F_UYYIf28MU5tTgGBiB-30" value="&lt;font style=&quot;font-size: 28px;&quot;&gt;Teacher&lt;/font&gt;" style="rounded=0;whiteSpace=wrap;html=1;" parent="1" vertex="1">
          <mxGeometry x="615" y="470" width="150" height="80" as="geometry" />
        </mxCell>
        <mxCell id="4F_UYYIf28MU5tTgGBiB-31" value="&lt;font style=&quot;font-size: 28px;&quot;&gt;House&lt;/font&gt;" style="rounded=0;whiteSpace=wrap;html=1;" parent="1" vertex="1">
          <mxGeometry x="355" y="860" width="150" height="80" as="geometry" />
        </mxCell>
        <mxCell id="4F_UYYIf28MU5tTgGBiB-32" value="" style="endArrow=none;html=1;rounded=0;entryX=0;entryY=0.5;entryDx=0;entryDy=0;" parent="1" target="4F_UYYIf28MU5tTgGBiB-33" edge="1">
          <mxGeometry width="50" height="50" relative="1" as="geometry">
            <mxPoint x="470" y="860" as="sourcePoint" />
            <mxPoint x="520" y="810" as="targetPoint" />
          </mxGeometry>
        </mxCell>
        <mxCell id="4F_UYYIf28MU5tTgGBiB-33" value="&lt;u&gt;&lt;font style=&quot;font-size: 15px;&quot;&gt;Name&lt;/font&gt;&lt;/u&gt;" style="ellipse;whiteSpace=wrap;html=1;" parent="1" vertex="1">
          <mxGeometry x="500" y="830" width="60" height="25" as="geometry" />
        </mxCell>
        <mxCell id="4F_UYYIf28MU5tTgGBiB-34" value="&lt;font style=&quot;font-size: 16px;&quot;&gt;BelongsTo&lt;/font&gt;" style="rhombus;whiteSpace=wrap;html=1;" parent="1" vertex="1">
          <mxGeometry x="85" y="730" width="110" height="60" as="geometry" />
        </mxCell>
        <mxCell id="4F_UYYIf28MU5tTgGBiB-35" value="" style="endArrow=none;html=1;rounded=0;entryX=0;entryY=0.5;entryDx=0;entryDy=0;exitX=0.25;exitY=1;exitDx=0;exitDy=0;" parent="1" source="4F_UYYIf28MU5tTgGBiB-21" target="4F_UYYIf28MU5tTgGBiB-34" edge="1">
          <mxGeometry width="50" height="50" relative="1" as="geometry">
            <mxPoint x="200" y="520" as="sourcePoint" />
            <mxPoint x="240" y="470" as="targetPoint" />
          </mxGeometry>
        </mxCell>
        <mxCell id="4F_UYYIf28MU5tTgGBiB-37" value="" style="endArrow=classic;html=1;rounded=0;entryX=0;entryY=0.5;entryDx=0;entryDy=0;exitX=0.5;exitY=1;exitDx=0;exitDy=0;" parent="1" source="4F_UYYIf28MU5tTgGBiB-34" target="4F_UYYIf28MU5tTgGBiB-31" edge="1">
          <mxGeometry width="50" height="50" relative="1" as="geometry">
            <mxPoint x="195" y="760" as="sourcePoint" />
            <mxPoint x="414" y="880" as="targetPoint" />
          </mxGeometry>
        </mxCell>
        <mxCell id="4F_UYYIf28MU5tTgGBiB-38" value="1:1" style="text;html=1;align=center;verticalAlign=middle;resizable=0;points=[];autosize=1;strokeColor=none;fillColor=none;" parent="1" vertex="1">
          <mxGeometry x="420" y="695" width="40" height="30" as="geometry" />
        </mxCell>
        <mxCell id="4F_UYYIf28MU5tTgGBiB-39" value="0:N" style="text;html=1;align=center;verticalAlign=middle;resizable=0;points=[];autosize=1;strokeColor=none;fillColor=none;" parent="1" vertex="1">
          <mxGeometry x="50" y="550" width="40" height="30" as="geometry" />
        </mxCell>
        <mxCell id="4F_UYYIf28MU5tTgGBiB-40" value="&lt;font style=&quot;font-size: 16px;&quot;&gt;HeadFor&lt;/font&gt;" style="rhombus;whiteSpace=wrap;html=1;" parent="1" vertex="1">
          <mxGeometry x="670" y="730" width="110" height="60" as="geometry" />
        </mxCell>
        <mxCell id="4F_UYYIf28MU5tTgGBiB-44" value="" style="endArrow=classic;html=1;rounded=0;entryX=0.75;entryY=1;entryDx=0;entryDy=0;exitX=0.5;exitY=0;exitDx=0;exitDy=0;" parent="1" source="4F_UYYIf28MU5tTgGBiB-40" target="4F_UYYIf28MU5tTgGBiB-30" edge="1">
          <mxGeometry width="50" height="50" relative="1" as="geometry">
            <mxPoint x="719.9966666666668" y="737.5" as="sourcePoint" />
            <mxPoint x="689.58" y="555" as="targetPoint" />
          </mxGeometry>
        </mxCell>
        <mxCell id="4F_UYYIf28MU5tTgGBiB-45" value="1:1" style="text;html=1;align=center;verticalAlign=middle;resizable=0;points=[];autosize=1;strokeColor=none;fillColor=none;" parent="1" vertex="1">
          <mxGeometry x="750" y="555" width="40" height="30" as="geometry" />
        </mxCell>
        <mxCell id="4F_UYYIf28MU5tTgGBiB-47" value="" style="endArrow=classic;html=1;rounded=0;entryX=1;entryY=0.5;entryDx=0;entryDy=0;exitX=0.5;exitY=1;exitDx=0;exitDy=0;" parent="1" source="4F_UYYIf28MU5tTgGBiB-40" target="4F_UYYIf28MU5tTgGBiB-31" edge="1">
          <mxGeometry width="50" height="50" relative="1" as="geometry">
            <mxPoint x="450" y="520" as="sourcePoint" />
            <mxPoint x="495" y="450" as="targetPoint" />
          </mxGeometry>
        </mxCell>
        <mxCell id="4F_UYYIf28MU5tTgGBiB-48" value="0:1" style="text;html=1;align=center;verticalAlign=middle;resizable=0;points=[];autosize=1;strokeColor=none;fillColor=none;" parent="1" vertex="1">
          <mxGeometry x="500" y="860" width="40" height="30" as="geometry" />
        </mxCell>
        <mxCell id="4F_UYYIf28MU5tTgGBiB-50" value="&lt;font style=&quot;font-size: 28px;&quot;&gt;Subject&lt;/font&gt;" style="rounded=0;whiteSpace=wrap;html=1;" parent="1" vertex="1">
          <mxGeometry x="345" y="720" width="140" height="40" as="geometry" />
        </mxCell>
        <mxCell id="4F_UYYIf28MU5tTgGBiB-51" value="" style="endArrow=none;html=1;rounded=0;exitX=0.5;exitY=1;exitDx=0;exitDy=0;entryX=0;entryY=0.5;entryDx=0;entryDy=0;" parent="1" source="4F_UYYIf28MU5tTgGBiB-21" target="4F_UYYIf28MU5tTgGBiB-52" edge="1">
          <mxGeometry width="50" height="50" relative="1" as="geometry">
            <mxPoint x="240" y="550" as="sourcePoint" />
            <mxPoint x="200" y="620" as="targetPoint" />
          </mxGeometry>
        </mxCell>
        <mxCell id="4F_UYYIf28MU5tTgGBiB-52" value="&lt;font style=&quot;font-size: 16px;&quot;&gt;isStudying&lt;/font&gt;" style="rhombus;whiteSpace=wrap;html=1;" parent="1" vertex="1">
          <mxGeometry x="200" y="535" width="110" height="60" as="geometry" />
        </mxCell>
        <mxCell id="4F_UYYIf28MU5tTgGBiB-53" value="&lt;font style=&quot;font-size: 20px;&quot;&gt;Year&lt;/font&gt;" style="ellipse;whiteSpace=wrap;html=1;" parent="1" vertex="1">
          <mxGeometry x="385" y="360" width="65" height="30" as="geometry" />
        </mxCell>
        <mxCell id="4F_UYYIf28MU5tTgGBiB-54" value="" style="endArrow=none;html=1;rounded=0;exitX=0.5;exitY=1;exitDx=0;exitDy=0;" parent="1" source="4F_UYYIf28MU5tTgGBiB-53" target="IBz2gKsZxdDZvviABwcV-5" edge="1">
          <mxGeometry width="50" height="50" relative="1" as="geometry">
            <mxPoint x="390" y="590" as="sourcePoint" />
            <mxPoint x="440" y="540" as="targetPoint" />
          </mxGeometry>
        </mxCell>
        <mxCell id="4F_UYYIf28MU5tTgGBiB-55" value="" style="endArrow=none;html=1;rounded=0;exitX=0.5;exitY=1;exitDx=0;exitDy=0;entryX=0.5;entryY=0;entryDx=0;entryDy=0;" parent="1" edge="1" target="4F_UYYIf28MU5tTgGBiB-56" source="4F_UYYIf28MU5tTgGBiB-52">
          <mxGeometry width="50" height="50" relative="1" as="geometry">
            <mxPoint x="264.5" y="620" as="sourcePoint" />
            <mxPoint x="264.5" y="650" as="targetPoint" />
          </mxGeometry>
        </mxCell>
        <mxCell id="4F_UYYIf28MU5tTgGBiB-56" value="&lt;font style=&quot;font-size: 17px;&quot;&gt;Grade&lt;/font&gt;" style="ellipse;whiteSpace=wrap;html=1;" parent="1" vertex="1">
          <mxGeometry x="222.5" y="610" width="65" height="30" as="geometry" />
        </mxCell>
        <mxCell id="4F_UYYIf28MU5tTgGBiB-58" value="0:N" style="text;html=1;align=center;verticalAlign=middle;resizable=0;points=[];autosize=1;strokeColor=none;fillColor=none;" parent="1" vertex="1">
          <mxGeometry x="341" y="480" width="40" height="30" as="geometry" />
        </mxCell>
        <mxCell id="4F_UYYIf28MU5tTgGBiB-61" style="edgeStyle=orthogonalEdgeStyle;rounded=0;orthogonalLoop=1;jettySize=auto;html=1;exitX=0.5;exitY=1;exitDx=0;exitDy=0;" parent="1" source="4F_UYYIf28MU5tTgGBiB-33" target="4F_UYYIf28MU5tTgGBiB-33" edge="1">
          <mxGeometry relative="1" as="geometry" />
        </mxCell>
        <mxCell id="4F_UYYIf28MU5tTgGBiB-62" value="&lt;font style=&quot;font-size: 16px;&quot;&gt;&lt;u&gt;Name&lt;/u&gt;&lt;/font&gt;" style="ellipse;whiteSpace=wrap;html=1;" parent="1" vertex="1">
          <mxGeometry x="500" y="725" width="60" height="30" as="geometry" />
        </mxCell>
        <mxCell id="4F_UYYIf28MU5tTgGBiB-66" value="" style="endArrow=none;html=1;rounded=0;exitX=1;exitY=0.5;exitDx=0;exitDy=0;entryX=0;entryY=0.5;entryDx=0;entryDy=0;" parent="1" source="4F_UYYIf28MU5tTgGBiB-50" edge="1">
          <mxGeometry width="50" height="50" relative="1" as="geometry">
            <mxPoint x="470" y="635" as="sourcePoint" />
            <mxPoint x="499.99999999999477" y="740.0000000000002" as="targetPoint" />
          </mxGeometry>
        </mxCell>
        <mxCell id="4F_UYYIf28MU5tTgGBiB-81" value="0:1" style="text;html=1;align=center;verticalAlign=middle;resizable=0;points=[];autosize=1;strokeColor=none;fillColor=none;" parent="1" vertex="1">
          <mxGeometry x="430" y="760" width="40" height="30" as="geometry" />
        </mxCell>
        <mxCell id="4F_UYYIf28MU5tTgGBiB-84" value="1:1" style="text;html=1;align=center;verticalAlign=middle;resizable=0;points=[];autosize=1;strokeColor=none;fillColor=none;" parent="1" vertex="1">
          <mxGeometry x="650" y="550" width="40" height="30" as="geometry" />
        </mxCell>
        <mxCell id="4F_UYYIf28MU5tTgGBiB-86" value="" style="endArrow=classic;html=1;rounded=0;entryX=0;entryY=1;entryDx=0;entryDy=0;exitX=0;exitY=0.5;exitDx=0;exitDy=0;" parent="1" source="4F_UYYIf28MU5tTgGBiB-87" target="4F_UYYIf28MU5tTgGBiB-21" edge="1">
          <mxGeometry width="50" height="50" relative="1" as="geometry">
            <mxPoint x="45" y="850" as="sourcePoint" />
            <mxPoint x="430" y="770" as="targetPoint" />
          </mxGeometry>
        </mxCell>
        <mxCell id="4F_UYYIf28MU5tTgGBiB-87" value="&lt;font size=&quot;3&quot;&gt;CompletesA&lt;/font&gt;" style="rhombus;whiteSpace=wrap;html=1;" parent="1" vertex="1">
          <mxGeometry x="45" y="815" width="110" height="60" as="geometry" />
        </mxCell>
        <mxCell id="4F_UYYIf28MU5tTgGBiB-88" value="" style="endArrow=none;html=1;rounded=0;entryX=1;entryY=0.5;entryDx=0;entryDy=0;exitX=0;exitY=0.5;exitDx=0;exitDy=0;" parent="1" source="4F_UYYIf28MU5tTgGBiB-90" target="4F_UYYIf28MU5tTgGBiB-92" edge="1">
          <mxGeometry width="50" height="50" relative="1" as="geometry">
            <mxPoint x="380" y="1040" as="sourcePoint" />
            <mxPoint x="50" y="910" as="targetPoint" />
          </mxGeometry>
        </mxCell>
        <mxCell id="4F_UYYIf28MU5tTgGBiB-90" value="&lt;font style=&quot;font-size: 17px;&quot;&gt;date&lt;/font&gt;" style="ellipse;whiteSpace=wrap;html=1;" parent="1" vertex="1">
          <mxGeometry x="381" y="1030" width="65" height="30" as="geometry" />
        </mxCell>
        <mxCell id="4F_UYYIf28MU5tTgGBiB-92" value="&lt;font style=&quot;font-size: 28px;&quot;&gt;Deed&lt;/font&gt;" style="rounded=0;whiteSpace=wrap;html=1;" parent="1" vertex="1">
          <mxGeometry x="160" y="1010" width="150" height="80" as="geometry" />
        </mxCell>
        <mxCell id="4F_UYYIf28MU5tTgGBiB-93" value="" style="endArrow=classic;html=1;rounded=0;exitX=0.5;exitY=1;exitDx=0;exitDy=0;entryX=0.25;entryY=0;entryDx=0;entryDy=0;" parent="1" source="4F_UYYIf28MU5tTgGBiB-87" target="4F_UYYIf28MU5tTgGBiB-92" edge="1">
          <mxGeometry width="50" height="50" relative="1" as="geometry">
            <mxPoint x="380" y="880" as="sourcePoint" />
            <mxPoint x="430" y="830" as="targetPoint" />
          </mxGeometry>
        </mxCell>
        <mxCell id="4F_UYYIf28MU5tTgGBiB-94" value="0:N" style="text;html=1;align=center;verticalAlign=middle;resizable=0;points=[];autosize=1;strokeColor=none;fillColor=none;" parent="1" vertex="1">
          <mxGeometry x="190" y="980" width="40" height="30" as="geometry" />
        </mxCell>
        <mxCell id="4F_UYYIf28MU5tTgGBiB-95" value="&lt;span style=&quot;font-size: 17px;&quot;&gt;&lt;u&gt;id&lt;/u&gt;&lt;/span&gt;" style="ellipse;whiteSpace=wrap;html=1;" parent="1" vertex="1">
          <mxGeometry x="40" y="1030" width="65" height="30" as="geometry" />
        </mxCell>
        <mxCell id="4F_UYYIf28MU5tTgGBiB-97" value="" style="endArrow=none;html=1;rounded=0;exitX=1;exitY=0.5;exitDx=0;exitDy=0;entryX=0;entryY=0.5;entryDx=0;entryDy=0;" parent="1" source="4F_UYYIf28MU5tTgGBiB-95" target="4F_UYYIf28MU5tTgGBiB-92" edge="1">
          <mxGeometry width="50" height="50" relative="1" as="geometry">
            <mxPoint x="380" y="980" as="sourcePoint" />
            <mxPoint x="430" y="930" as="targetPoint" />
          </mxGeometry>
        </mxCell>
        <mxCell id="4F_UYYIf28MU5tTgGBiB-98" value="&lt;span style=&quot;font-size: 17px;&quot;&gt;points&lt;/span&gt;" style="ellipse;whiteSpace=wrap;html=1;" parent="1" vertex="1">
          <mxGeometry x="40" y="1090" width="65" height="30" as="geometry" />
        </mxCell>
        <mxCell id="4F_UYYIf28MU5tTgGBiB-99" value="" style="endArrow=none;html=1;rounded=0;exitX=1;exitY=0.5;exitDx=0;exitDy=0;entryX=0;entryY=0.75;entryDx=0;entryDy=0;" parent="1" source="4F_UYYIf28MU5tTgGBiB-98" target="4F_UYYIf28MU5tTgGBiB-92" edge="1">
          <mxGeometry width="50" height="50" relative="1" as="geometry">
            <mxPoint x="120" y="1040" as="sourcePoint" />
            <mxPoint x="175" y="1045" as="targetPoint" />
          </mxGeometry>
        </mxCell>
        <mxCell id="IBz2gKsZxdDZvviABwcV-5" value="&lt;font style=&quot;font-size: 18px;&quot;&gt;Course Offering&lt;/font&gt;" style="whiteSpace=wrap;html=1;" vertex="1" parent="1">
          <mxGeometry x="355" y="420" width="120" height="60" as="geometry" />
        </mxCell>
        <mxCell id="IBz2gKsZxdDZvviABwcV-6" value="0:N" style="text;html=1;align=center;verticalAlign=middle;resizable=0;points=[];autosize=1;strokeColor=none;fillColor=none;" vertex="1" parent="1">
          <mxGeometry x="10" y="555" width="40" height="30" as="geometry" />
        </mxCell>
        <mxCell id="IBz2gKsZxdDZvviABwcV-8" value="" style="endArrow=none;html=1;rounded=0;exitX=1;exitY=0.5;exitDx=0;exitDy=0;entryX=0.25;entryY=1;entryDx=0;entryDy=0;" edge="1" parent="1" source="4F_UYYIf28MU5tTgGBiB-52" target="IBz2gKsZxdDZvviABwcV-5">
          <mxGeometry width="50" height="50" relative="1" as="geometry">
            <mxPoint x="410" y="680" as="sourcePoint" />
            <mxPoint x="460" y="630" as="targetPoint" />
          </mxGeometry>
        </mxCell>
        <mxCell id="IBz2gKsZxdDZvviABwcV-13" value="" style="rounded=0;whiteSpace=wrap;html=1;" vertex="1" parent="1">
          <mxGeometry x="339" y="410" width="151" height="80" as="geometry" />
        </mxCell>
        <mxCell id="IBz2gKsZxdDZvviABwcV-14" value="&lt;font style=&quot;font-size: 18px;&quot;&gt;CourseOffering&lt;/font&gt;" style="whiteSpace=wrap;html=1;" vertex="1" parent="1">
          <mxGeometry x="350" y="420" width="130" height="60" as="geometry" />
        </mxCell>
        <mxCell id="IBz2gKsZxdDZvviABwcV-15" value="&lt;font style=&quot;font-size: 16px;&quot;&gt;isTeaching&lt;/font&gt;" style="rhombus;whiteSpace=wrap;html=1;" vertex="1" parent="1">
          <mxGeometry x="490" y="535" width="110" height="60" as="geometry" />
        </mxCell>
        <mxCell id="IBz2gKsZxdDZvviABwcV-18" value="0:N" style="text;html=1;align=center;verticalAlign=middle;resizable=0;points=[];autosize=1;strokeColor=none;fillColor=none;" vertex="1" parent="1">
          <mxGeometry x="460" y="490" width="40" height="30" as="geometry" />
        </mxCell>
        <mxCell id="IBz2gKsZxdDZvviABwcV-19" value="" style="endArrow=none;html=1;rounded=0;entryX=0.75;entryY=1;entryDx=0;entryDy=0;exitX=0;exitY=0.5;exitDx=0;exitDy=0;" edge="1" parent="1" source="IBz2gKsZxdDZvviABwcV-15" target="IBz2gKsZxdDZvviABwcV-13">
          <mxGeometry width="50" height="50" relative="1" as="geometry">
            <mxPoint x="410" y="670" as="sourcePoint" />
            <mxPoint x="460" y="620" as="targetPoint" />
          </mxGeometry>
        </mxCell>
        <mxCell id="IBz2gKsZxdDZvviABwcV-20" value="" style="endArrow=none;html=1;rounded=0;entryX=0.5;entryY=1;entryDx=0;entryDy=0;" edge="1" parent="1" target="IBz2gKsZxdDZvviABwcV-13">
          <mxGeometry width="50" height="50" relative="1" as="geometry">
            <mxPoint x="415" y="570" as="sourcePoint" />
            <mxPoint x="460" y="620" as="targetPoint" />
          </mxGeometry>
        </mxCell>
        <mxCell id="IBz2gKsZxdDZvviABwcV-22" value="0:N" style="text;html=1;align=center;verticalAlign=middle;resizable=0;points=[];autosize=1;strokeColor=none;fillColor=none;" vertex="1" parent="1">
          <mxGeometry x="410" y="490" width="40" height="30" as="geometry" />
        </mxCell>
        <mxCell id="IBz2gKsZxdDZvviABwcV-23" value="" style="rhombus;whiteSpace=wrap;html=1;" vertex="1" parent="1">
          <mxGeometry x="330" y="570" width="170" height="80" as="geometry" />
        </mxCell>
        <mxCell id="IBz2gKsZxdDZvviABwcV-24" value="&lt;font style=&quot;font-size: 28px;&quot;&gt;In&lt;/font&gt;" style="rhombus;whiteSpace=wrap;html=1;" vertex="1" parent="1">
          <mxGeometry x="350" y="575" width="130" height="70" as="geometry" />
        </mxCell>
        <mxCell id="IBz2gKsZxdDZvviABwcV-25" value="" style="endArrow=none;html=1;rounded=0;" edge="1" parent="1">
          <mxGeometry width="50" height="50" relative="1" as="geometry">
            <mxPoint x="400" y="700" as="sourcePoint" />
            <mxPoint x="430" y="700" as="targetPoint" />
          </mxGeometry>
        </mxCell>
        <mxCell id="IBz2gKsZxdDZvviABwcV-26" value="" style="endArrow=none;html=1;rounded=0;" edge="1" parent="1">
          <mxGeometry width="50" height="50" relative="1" as="geometry">
            <mxPoint x="430" y="690" as="sourcePoint" />
            <mxPoint x="400" y="690" as="targetPoint" />
          </mxGeometry>
        </mxCell>
        <mxCell id="IBz2gKsZxdDZvviABwcV-28" value="" style="endArrow=none;html=1;rounded=0;" edge="1" parent="1">
          <mxGeometry width="50" height="50" relative="1" as="geometry">
            <mxPoint x="720" y="570" as="sourcePoint" />
            <mxPoint x="740" y="570" as="targetPoint" />
          </mxGeometry>
        </mxCell>
        <mxCell id="IBz2gKsZxdDZvviABwcV-29" value="" style="endArrow=none;html=1;rounded=0;" edge="1" parent="1">
          <mxGeometry width="50" height="50" relative="1" as="geometry">
            <mxPoint x="720" y="580" as="sourcePoint" />
            <mxPoint x="740" y="580" as="targetPoint" />
          </mxGeometry>
        </mxCell>
        <mxCell id="IBz2gKsZxdDZvviABwcV-31" value="" style="endArrow=classic;html=1;rounded=0;exitX=0.5;exitY=1;exitDx=0;exitDy=0;entryX=0.5;entryY=0;entryDx=0;entryDy=0;" edge="1" parent="1" source="IBz2gKsZxdDZvviABwcV-23" target="4F_UYYIf28MU5tTgGBiB-50">
          <mxGeometry width="50" height="50" relative="1" as="geometry">
            <mxPoint x="410" y="740" as="sourcePoint" />
            <mxPoint x="460" y="690" as="targetPoint" />
          </mxGeometry>
        </mxCell>
        <mxCell id="IBz2gKsZxdDZvviABwcV-35" value="0:N" style="text;html=1;align=center;verticalAlign=middle;resizable=0;points=[];autosize=1;strokeColor=none;fillColor=none;" vertex="1" parent="1">
          <mxGeometry x="130" y="545" width="40" height="30" as="geometry" />
        </mxCell>
        <mxCell id="IBz2gKsZxdDZvviABwcV-36" value="1:1" style="text;html=1;align=center;verticalAlign=middle;resizable=0;points=[];autosize=1;strokeColor=none;fillColor=none;" vertex="1" parent="1">
          <mxGeometry x="320" y="855" width="40" height="30" as="geometry" />
        </mxCell>
        <mxCell id="IBz2gKsZxdDZvviABwcV-41" value="" style="endArrow=none;html=1;rounded=0;" edge="1" parent="1" target="IBz2gKsZxdDZvviABwcV-36">
          <mxGeometry width="50" height="50" relative="1" as="geometry">
            <mxPoint x="330" y="900" as="sourcePoint" />
            <mxPoint x="460" y="690" as="targetPoint" />
          </mxGeometry>
        </mxCell>
        <mxCell id="IBz2gKsZxdDZvviABwcV-42" value="" style="endArrow=none;html=1;rounded=0;entryX=0.639;entryY=0.943;entryDx=0;entryDy=0;entryPerimeter=0;" edge="1" parent="1" target="IBz2gKsZxdDZvviABwcV-36">
          <mxGeometry width="50" height="50" relative="1" as="geometry">
            <mxPoint x="340" y="910" as="sourcePoint" />
            <mxPoint x="335" y="900" as="targetPoint" />
          </mxGeometry>
        </mxCell>
        <mxCell id="IBz2gKsZxdDZvviABwcV-43" value="" style="endArrow=none;html=1;rounded=0;entryX=0.5;entryY=1;entryDx=0;entryDy=0;exitX=0.5;exitY=0;exitDx=0;exitDy=0;" edge="1" parent="1" source="IBz2gKsZxdDZvviABwcV-44" target="4F_UYYIf28MU5tTgGBiB-21">
          <mxGeometry width="50" height="50" relative="1" as="geometry">
            <mxPoint x="180" y="650" as="sourcePoint" />
            <mxPoint x="460" y="690" as="targetPoint" />
          </mxGeometry>
        </mxCell>
        <mxCell id="IBz2gKsZxdDZvviABwcV-44" value="&lt;font size=&quot;3&quot;&gt;Favorite&lt;/font&gt;" style="rhombus;whiteSpace=wrap;html=1;" vertex="1" parent="1">
          <mxGeometry x="155" y="660" width="110" height="60" as="geometry" />
        </mxCell>
        <mxCell id="IBz2gKsZxdDZvviABwcV-45" value="" style="endArrow=none;html=1;rounded=0;entryX=0.5;entryY=1;entryDx=0;entryDy=0;exitX=0;exitY=0.5;exitDx=0;exitDy=0;" edge="1" parent="1" source="4F_UYYIf28MU5tTgGBiB-50" target="IBz2gKsZxdDZvviABwcV-44">
          <mxGeometry width="50" height="50" relative="1" as="geometry">
            <mxPoint x="410" y="740" as="sourcePoint" />
            <mxPoint x="460" y="690" as="targetPoint" />
          </mxGeometry>
        </mxCell>
        <mxCell id="IBz2gKsZxdDZvviABwcV-46" value="0:N" style="text;html=1;align=center;verticalAlign=middle;resizable=0;points=[];autosize=1;strokeColor=none;fillColor=none;" vertex="1" parent="1">
          <mxGeometry x="90" y="545" width="40" height="30" as="geometry" />
        </mxCell>
        <mxCell id="IBz2gKsZxdDZvviABwcV-47" value="0:N" style="text;html=1;align=center;verticalAlign=middle;resizable=0;points=[];autosize=1;strokeColor=none;fillColor=none;" vertex="1" parent="1">
          <mxGeometry x="310" y="740" width="40" height="30" as="geometry" />
        </mxCell>
        <mxCell id="IBz2gKsZxdDZvviABwcV-49" value="" style="endArrow=classic;html=1;rounded=0;exitX=1;exitY=0.5;exitDx=0;exitDy=0;entryX=0.25;entryY=1;entryDx=0;entryDy=0;" edge="1" parent="1" source="IBz2gKsZxdDZvviABwcV-15" target="4F_UYYIf28MU5tTgGBiB-30">
          <mxGeometry width="50" height="50" relative="1" as="geometry">
            <mxPoint x="570" y="620" as="sourcePoint" />
            <mxPoint x="620" y="570" as="targetPoint" />
          </mxGeometry>
        </mxCell>
        <mxCell id="IBz2gKsZxdDZvviABwcV-50" value="" style="endArrow=none;html=1;rounded=0;entryX=0;entryY=1;entryDx=0;entryDy=0;" edge="1" parent="1" target="4F_UYYIf28MU5tTgGBiB-30">
          <mxGeometry width="50" height="50" relative="1" as="geometry">
            <mxPoint x="630" y="570" as="sourcePoint" />
            <mxPoint x="620" y="560" as="targetPoint" />
          </mxGeometry>
        </mxCell>
        <mxCell id="IBz2gKsZxdDZvviABwcV-51" value="" style="endArrow=none;html=1;rounded=0;" edge="1" parent="1">
          <mxGeometry width="50" height="50" relative="1" as="geometry">
            <mxPoint x="640" y="570" as="sourcePoint" />
            <mxPoint x="630" y="550" as="targetPoint" />
          </mxGeometry>
        </mxCell>
      </root>
    </mxGraphModel>
  </diagram>
</mxfile>
